<svg width="49" height="40" viewBox="0 0 49 40" fill="none" xmlns="http://www.w3.org/2000/svg">
<path d="M7.39059 27.1639H41.5631V32.0457C41.5631 33.3405 41.0488 34.5822 40.1333 35.4977C39.2177 36.4132 37.976 36.9275 36.6813 36.9275H12.2724C10.9776 36.9275 9.73595 36.4132 8.82043 35.4977C7.90492 34.5822 7.39059 33.3405 7.39059 32.0457V27.1639Z" stroke="#929292" stroke-width="4.68728" stroke-linecap="round" stroke-linejoin="round"/>
<path d="M17.1542 2.75513H31.7995C34.389 2.75513 36.8724 3.78379 38.7034 5.61481C40.5344 7.44584 41.5631 9.92924 41.5631 12.5187V17.4005H7.39059V12.5187C7.39059 9.92924 8.41925 7.44584 10.2503 5.61481C12.0813 3.78379 14.5647 2.75513 17.1542 2.75513Z" stroke="#929292" stroke-width="3.89088" stroke-linecap="round" stroke-linejoin="round"/>
<path d="M41.5632 17.4004H7.39064C4.6945 17.4004 2.50885 19.586 2.50885 22.2822C2.50885 24.9783 4.6945 27.164 7.39064 27.164H41.5632C44.2593 27.164 46.4449 24.9783 46.4449 22.2822C46.4449 19.586 44.2593 17.4004 41.5632 17.4004Z" stroke="#929292" stroke-width="3.89088" stroke-linecap="round" stroke-linejoin="round"/>
</svg>
