<svg width="114" height="21" viewBox="0 0 114 21" fill="none" xmlns="http://www.w3.org/2000/svg">
<path d="M0.8853 20.1104H7.2081C13.1453 20.1104 17.3605 16.4349 17.3605 11.2687C17.3605 6.1025 13.1453 2.4528 7.2081 2.4528H0.8853V20.1104ZM4.6635 16.6662V5.8969H7.6964C11.0634 5.8969 13.4538 8.133 13.4538 11.2687C13.4538 14.4301 11.0634 16.6662 7.6964 16.6662H4.6635ZM26.4526 17.1032C24.8847 17.1032 23.7281 16.1265 23.2912 14.6871H32.8782C32.8782 9.6752 30.4364 6.5138 26.2726 6.5138C22.3916 6.5138 19.4358 9.4181 19.4358 13.4277C19.4358 17.5144 22.5201 20.4188 26.4783 20.4188C28.4316 20.4188 30.7192 19.5963 31.9015 18.3626L29.5111 15.9209C28.7915 16.6148 27.5064 17.1032 26.4526 17.1032ZM26.4269 9.8294C27.9433 9.8294 28.92 10.6776 29.2798 11.9884H23.3426C23.8309 10.6519 25.0132 9.8294 26.4269 9.8294ZM35.4169 20.1104H39.1694V2.1443H35.4169V20.1104ZM44.3212 4.9973C45.4264 4.9973 46.326 4.072 46.326 2.9411C46.326 1.8873 45.4264 0.936302 44.3212 0.936302C43.1646 0.936302 42.265 1.8873 42.265 2.9411C42.265 4.072 43.1646 4.9973 44.3212 4.9973ZM42.4192 20.1104H46.1718V6.8222H42.4192V20.1104ZM53.894 20.1104H57.364L63.044 6.8222H59.138L55.642 15.7923L52.0695 6.8222H48.137L53.894 20.1104ZM70.478 17.1032C68.91 17.1032 67.754 16.1265 67.317 14.6871H76.904C76.904 9.6752 74.462 6.5138 70.298 6.5138C66.417 6.5138 63.461 9.4181 63.461 13.4277C63.461 17.5144 66.546 20.4188 70.504 20.4188C72.457 20.4188 74.745 19.5963 75.927 18.3626L73.537 15.9209C72.817 16.6148 71.532 17.1032 70.478 17.1032ZM70.452 9.8294C71.969 9.8294 72.945 10.6776 73.305 11.9884H67.368C67.856 10.6519 69.039 9.8294 70.452 9.8294ZM83.195 9.2896V6.8222H79.442V20.1104H83.195V13.7618C83.195 11.2687 84.968 9.6752 87.744 9.6752V6.5138C85.714 6.5138 84.069 7.5676 83.195 9.2896ZM113.28 2.4528H108.859L104.618 8.2358L100.378 2.4528H95.905L102.357 11.3201L95.905 20.1104H100.3L104.567 14.3273L108.782 20.1104H113.28L106.803 11.243L113.28 2.4528Z" fill="#121212"/>
</svg>
