<svg width="42" height="45" viewBox="0 0 42 45" fill="none" xmlns="http://www.w3.org/2000/svg">
<path d="M18.3564 3.64478L2.53008 33.4157C2.31027 33.8262 2.17418 34.2764 2.12972 34.7399C2.08525 35.2035 2.13329 35.6713 2.27105 36.1161C2.40881 36.561 2.63355 36.974 2.93222 37.3313C3.23089 37.6886 3.59755 37.9831 4.01092 38.1976C9.27374 40.8501 15.0852 42.2319 20.9788 42.2319C26.8723 42.2319 32.6838 40.8501 37.9466 38.1976C38.3706 37.9941 38.7494 37.7076 39.0607 37.3551C39.372 37.0027 39.6095 36.5914 39.759 36.1456C39.9086 35.6997 39.9672 35.2284 39.9315 34.7595C39.8957 34.2906 39.7663 33.8337 39.5509 33.4157L23.7245 3.64478C23.4554 3.17 23.0652 2.77508 22.5937 2.50033C22.1221 2.22557 21.5862 2.08081 21.0405 2.08081C20.4947 2.08081 19.9588 2.22557 19.4872 2.50033C19.0157 2.77508 18.6255 3.17 18.3564 3.64478Z" stroke="#929292" stroke-width="3.89088" stroke-linecap="round" stroke-linejoin="round"/>
<path d="M37.2063 29.2201C32.1681 31.6656 26.6408 32.9361 21.0405 32.9361C15.4402 32.9361 9.9129 31.6656 4.87476 29.2201" stroke="#929292" stroke-width="3.89088" stroke-linecap="round" stroke-linejoin="round"/>
<path d="M16.413 23.6979V25.2404" stroke="#929292" stroke-width="3.89088" stroke-linecap="round" stroke-linejoin="round"/>
<path d="M25.6682 23.6979V25.2404" stroke="#929292" stroke-width="3.89088" stroke-linecap="round" stroke-linejoin="round"/>
<path d="M21.0405 14.4426V15.9852" stroke="#929292" stroke-width="3.89088" stroke-linecap="round" stroke-linejoin="round"/>
</svg>
